:FULLY-SPECIFIED
:FORCE-ALL-JOINTS-BE-3DOF
:DEGREES
510
root 5.95015 15.9341 -5.24089 -73.1596 72.7648 -78.7232
lfemur -28.1344 -12.8743 -22.523
ltibia 58.1565 0 0
lfoot -27.0327 -2.09963 0
ltoes 6.9471 0 0
rfemur -53.0272 4.0982 3.35169
rtibia 62.825 0 0
rfoot 10.3553 10.8156 0
rtoes -26.1133 0 0
lowerback 8.16144 0.174957 0.0293445
upperback 2.23832 0.6346 3.55338
thorax -2.31181 0.422849 3.58599
lowerneck -7.51594 -12.2159 -3.77021
upperneck 10.1182 -16.3441 3.24226
head 5.19106 -7.93769 0.406027
lclavicle -1.22269e-14 -2.8189e-14 0
lhumerus -46.7742 -30.0697 114.637
lradius 57.9959 0 0
lwrist 10.4378 0 0
lhand -3.18221 -2.56416 0
lfingers 7.12502 0 0
lthumb 22.4948 25.6318 0
rclavicle -1.22269e-14 -2.8189e-14 0
rhumerus -18.8874 23.6524 -89.0962
rradius 107.232 0 0
rwrist -5.09892 0 0
rhand -13.2676 -19.6473 0
rfingers 7.12502 0 0
rthumb 12.8218 -768.981 0
511
root 6.01318 15.8914 -5.1846 -78.865 71.8223 -84.3254
lfemur -28.2494 -12.4621 -22.5062
ltibia 59.1151 0 0
lfoot -27.2833 -1.78094 0
ltoes 6.11371 0 0
rfemur -52.6963 3.98356 2.8522
rtibia 61.8136 0 0
rfoot 10.3913 10.7981 0
rtoes -26.9255 0 0
lowerback 8.39726 0.225149 0.133299
upperback 2.39643 0.735586 3.74917
thorax -2.28647 0.479445 3.72115
lowerneck -7.40515 -12.4383 -3.93838
upperneck 10.3019 -16.6428 3.36274
head 5.25333 -8.07851 0.437512
lclavicle -1.37121e-14 -2.892e-14 0
lhumerus -46.6032 -29.87 114.575
lradius 58.1426 0 0
lwrist 10.9357 0 0
lhand -4.01685 -2.82641 0
lfingers 7.12502 0 0
lthumb 21.6935 25.4601 0
rclavicle -1.37121e-14 -2.892e-14 0
rhumerus -16.996 22.9103 -88.4812
rradius 108.908 0 0
rwrist -7.58909 0 0
rhand -13.9301 -19.8284 0
rfingers 7.12502 0 0
rthumb 12.1832 -769.197 0
512
root 6.07621 15.8487 -5.1283 -84.5704 70.8798 -89.9276
lfemur -28.3643 -12.0498 -22.4894
ltibia 60.0736 0 0
lfoot -27.5338 -1.46226 0
ltoes 5.28032 0 0
rfemur -52.3653 3.86892 2.35272
rtibia 60.8022 0 0
rfoot 10.4273 10.7806 0
rtoes -27.7377 0 0
lowerback 8.63308 0.275342 0.237253
upperback 2.55455 0.836571 3.94496
thorax -2.26113 0.536041 3.85632
lowerneck -7.29436 -12.6607 -4.10655
upperneck 10.4856 -16.9415 3.48322
head 5.31561 -8.21933 0.468996
lclavicle -1.51974e-14 -2.9651e-14 0
lhumerus -46.4322 -29.6702 114.512
lradius 58.2894 0 0
lwrist 11.4336 0 0
lhand -4.85149 -3.08866 0
lfingers 7.12502 0 0
lthumb 20.8923 25.2884 0
rclavicle -1.51974e-14 -2.9651e-14 0
rhumerus -15.1046 22.1682 -87.8662
rradius 110.585 0 0
rwrist -10.0793 0 0
rhand -14.5925 -20.0094 0
rfingers 7.12502 0 0
rthumb 11.5446 -769.414 0
513
root 6.13924 15.8059 -5.07201 -90.2759 69.9374 -95.5298
lfemur -28.4793 -11.6375 -22.4727
ltibia 61.0322 0 0
lfoot -27.7844 -1.14357 0
ltoes 4.44692 0 0
rfemur -52.0344 3.75429 1.85323
rtibia 59.7908 0 0
rfoot 10.4634 10.7631 0
rtoes -28.5498 0 0
lowerback 8.8689 0.325534 0.341207
upperback 2.71266 0.937557 4.14074
thorax -2.23579 0.592637 3.99149
lowerneck -7.18358 -12.8831 -4.27472
upperneck 10.6693 -17.2402 3.6037
head 5.37788 -8.36016 0.500481
lclavicle -1.66827e-14 -3.0382e-14 0
lhumerus -46.2611 -29.4705 114.45
lradius 58.4361 0 0
lwrist 11.9315 0 0
lhand -5.68613 -3.35091 0
lfingers 7.12502 0 0
lthumb 20.091 25.1167 0
rclavicle -1.66827e-14 -3.0382e-14 0
rhumerus -13.2132 21.4261 -87.2513
rradius 112.262 0 0
rwrist -12.5694 0 0
rhand -15.255 -20.1905 0
rfingers 7.12502 0 0
rthumb 10.9059 -769.631 0
